<?xml version="1.0" encoding="iso-8859-1"?>
<!-- Generator: Adobe Illustrator 18.0.0, SVG Export Plug-In . SVG Version: 6.00 Build 0)  -->
<!DOCTYPE svg PUBLIC "-//W3C//DTD SVG 1.1//EN" "http://www.w3.org/Graphics/SVG/1.1/DTD/svg11.dtd">
<svg version="1.1" id="Capa_1" xmlns="http://www.w3.org/2000/svg" xmlns:xlink="http://www.w3.org/1999/xlink" x="0px" y="0px"
	 viewBox="0 0 450.222 450.222" style="enable-background:new 0 0 450.222 450.222;" xml:space="preserve">
<g>
	<path d="M296.696,106.233h-143.17c-21.108,0-38.281,17.172-38.281,38.28v6.984c0,0.08-0.01,0.158-0.012,0.237h219.753
		c-0.002-0.079-0.013-0.157-0.013-0.238v-6.984C334.975,123.405,317.804,106.233,296.696,106.233z"/>
	<path d="M94.033,151.497v-6.984c0-32.804,26.688-59.493,59.494-59.493h143.17c32.804,0,59.491,26.688,59.491,59.492v6.984
		c0,0.081-0.01,0.159-0.012,0.238h33.301V85.255c0-40.956-33.321-74.276-74.277-74.276H135.02c-40.956,0-74.276,33.32-74.276,74.276
		v66.479h33.301C94.043,151.656,94.033,151.578,94.033,151.497z"/>
	<path d="M419.131,172.948H31.09c-17.144,0-31.09,13.947-31.09,31.09v155.608c0,17.143,13.947,31.09,31.09,31.09h14.188
		L33.105,425.09c-1.957,5.522,0.934,11.584,6.455,13.54c1.171,0.415,2.367,0.612,3.542,0.612c4.366,0,8.456-2.717,9.997-7.067
		l14.684-41.44h314.66l14.684,41.44c1.542,4.351,5.632,7.067,9.998,7.067c1.176,0,2.372-0.197,3.542-0.612
		c5.522-1.956,8.412-8.019,6.455-13.54l-12.175-34.355h14.184c17.144,0,31.091-13.947,31.091-31.09V204.038
		C450.222,186.895,436.274,172.948,419.131,172.948z"/>
</g>
<g>
</g>
<g>
</g>
<g>
</g>
<g>
</g>
<g>
</g>
<g>
</g>
<g>
</g>
<g>
</g>
<g>
</g>
<g>
</g>
<g>
</g>
<g>
</g>
<g>
</g>
<g>
</g>
<g>
</g>
</svg>
