<svg width="24" height="17" viewBox="0 0 24 17" fill="none" xmlns="http://www.w3.org/2000/svg">
<path d="M12 2.34907e-05C7.31 2.34907e-05 3.07 1.90002 0 4.98002L12 17L24 4.98002C22.4279 3.39843 20.558 2.14402 18.4983 1.28925C16.4386 0.434484 14.23 -0.00369667 12 2.34907e-05V2.34907e-05ZM2.92 5.07002C5.51 3.08002 8.67 2.00002 12 2.00002C15.33 2.00002 18.49 3.08002 21.08 5.07002L18.23 7.93002C16.3977 6.66852 14.2245 5.99529 12 6.00002C9.69 6.00002 7.54 6.71002 5.77 7.93002L2.92 5.07002Z" fill="#134611"/>
</svg>
