<svg width="16" height="15" viewBox="0 0 16 15" fill="none" xmlns="http://www.w3.org/2000/svg">
<path d="M11.4731 10C11.3606 8.98614 10.9069 8.04058 10.1865 7.31836C9.46613 6.59614 8.52173 6.14011 7.50816 6.02504C6.49458 5.90997 5.47199 6.14268 4.60802 6.68502C3.74406 7.22737 3.09 8.04716 2.75307 9.01C1.98101 9.07319 1.26332 9.43258 0.750235 10.0129C0.237147 10.5933 -0.0315631 11.3496 0.000352415 12.1236C0.0322679 12.8976 0.362335 13.6292 0.921462 14.1654C1.48059 14.7015 2.22543 15.0006 3.00007 15H11.5001C12.1631 15 12.799 14.7366 13.2678 14.2678C13.7367 13.7989 14.0001 13.163 14.0001 12.5C14.0001 11.837 13.7367 11.2011 13.2678 10.7322C12.799 10.2634 12.1631 10 11.5001 10H11.4731Z" fill="#134611"/>
<path d="M10.5001 0.5C10.5001 0.367392 10.4474 0.240215 10.3536 0.146447C10.2598 0.0526784 10.1327 0 10.0001 0C9.86745 0 9.74027 0.0526784 9.6465 0.146447C9.55273 0.240215 9.50006 0.367392 9.50006 0.5V1.5C9.50006 1.63261 9.55273 1.75979 9.6465 1.85355C9.74027 1.94732 9.86745 2 10.0001 2C10.1327 2 10.2598 1.94732 10.3536 1.85355C10.4474 1.75979 10.5001 1.63261 10.5001 1.5V0.5ZM14.2431 2.464C14.2908 2.41788 14.3289 2.3627 14.3551 2.3017C14.3813 2.2407 14.3951 2.17509 14.3957 2.1087C14.3963 2.04231 14.3836 1.97647 14.3585 1.91502C14.3333 1.85357 14.2962 1.79775 14.2493 1.7508C14.2023 1.70386 14.1465 1.66673 14.085 1.64159C14.0236 1.61645 13.9577 1.6038 13.8914 1.60437C13.825 1.60495 13.7594 1.61874 13.6984 1.64495C13.6374 1.67115 13.5822 1.70924 13.5361 1.757L12.8281 2.464C12.7342 2.55789 12.6814 2.68522 12.6814 2.818C12.6814 2.95078 12.7342 3.07811 12.8281 3.172C12.9219 3.26589 13.0493 3.31863 13.1821 3.31863C13.3148 3.31863 13.4422 3.26589 13.5361 3.172L14.2431 2.464V2.464ZM6.46406 1.757C6.36975 1.66592 6.24345 1.61552 6.11235 1.61666C5.98126 1.6178 5.85585 1.67039 5.76315 1.76309C5.67044 1.85579 5.61786 1.9812 5.61672 2.1123C5.61558 2.2434 5.66598 2.3697 5.75706 2.464L6.46406 3.172C6.51054 3.21849 6.56573 3.25536 6.62647 3.28052C6.68721 3.30568 6.75231 3.31863 6.81806 3.31863C6.8838 3.31863 6.9489 3.30568 7.00964 3.28052C7.07038 3.25536 7.12557 3.21849 7.17206 3.172C7.21854 3.12551 7.25542 3.07032 7.28058 3.00958C7.30574 2.94884 7.31869 2.88374 7.31869 2.818C7.31869 2.75226 7.30574 2.68716 7.28058 2.62642C7.25542 2.56568 7.21854 2.51049 7.17206 2.464L6.46406 1.757V1.757ZM8.19806 5.131C8.32234 4.87344 8.50042 4.64553 8.72027 4.46264C8.94013 4.27975 9.19665 4.14614 9.47253 4.07082C9.74841 3.99549 10.0372 3.98021 10.3195 4.026C10.6018 4.07179 10.871 4.17758 11.1089 4.33625C11.3469 4.49492 11.548 4.70276 11.6988 4.94577C11.8495 5.18878 11.9464 5.46129 11.9829 5.74493C12.0194 6.02858 11.9947 6.31675 11.9104 6.59001C11.826 6.86327 11.6841 7.11527 11.4941 7.329C11.6931 7.61 11.8661 7.911 12.0101 8.227C12.349 7.9208 12.6135 7.54126 12.7834 7.11732C12.9534 6.69338 13.0243 6.23623 12.9907 5.78073C12.9572 5.32523 12.8201 4.88339 12.5899 4.48892C12.3597 4.09444 12.0424 3.75774 11.6623 3.50448C11.2822 3.25122 10.8493 3.08809 10.3966 3.02752C9.94394 2.96695 9.48338 3.01055 9.05009 3.15499C8.61679 3.29944 8.2222 3.5409 7.89639 3.86099C7.57058 4.18108 7.32215 4.57133 7.17006 5.002C7.52206 5.013 7.86606 5.057 8.19806 5.131ZM12.6821 9.205C13.2821 9.42 13.8071 9.795 14.2041 10.277C14.2585 10.2329 14.3031 10.1779 14.3349 10.1155C14.3667 10.053 14.385 9.98464 14.3887 9.91468C14.3924 9.84472 14.3813 9.77477 14.3562 9.70936C14.3311 9.64396 14.2926 9.58455 14.2431 9.535L13.5361 8.828C13.4648 8.7563 13.3734 8.70789 13.2741 8.68916C13.1747 8.67043 13.072 8.68226 12.9795 8.72309C12.887 8.76392 12.8091 8.83184 12.756 8.91787C12.7029 9.0039 12.6771 9.10402 12.6821 9.205ZM14.5001 5.5C14.3674 5.5 14.2403 5.55268 14.1465 5.64645C14.0527 5.74021 14.0001 5.86739 14.0001 6C14.0001 6.13261 14.0527 6.25979 14.1465 6.35355C14.2403 6.44732 14.3674 6.5 14.5001 6.5H15.5001C15.6327 6.5 15.7598 6.44732 15.8536 6.35355C15.9474 6.25979 16.0001 6.13261 16.0001 6C16.0001 5.86739 15.9474 5.74021 15.8536 5.64645C15.7598 5.55268 15.6327 5.5 15.5001 5.5H14.5001Z" fill="#134611"/>
</svg>
