<?xml version="1.0" encoding="iso-8859-1"?>
<!-- Generator: Adobe Illustrator 19.0.0, SVG Export Plug-In . SVG Version: 6.00 Build 0)  -->
<svg version="1.1" id="Layer_1" xmlns="http://www.w3.org/2000/svg" xmlns:xlink="http://www.w3.org/1999/xlink" x="0px" y="0px"
	 viewBox="0 0 512 512" style="enable-background:new 0 0 512 512;" xml:space="preserve">
<g>
	<g>
		<polygon points="33.391,361.6 33.391,203.872 0,203.872 0,394.991 17.802,394.991 17.802,512 51.193,512 51.193,440.274 
			119.703,440.274 119.703,512 153.095,512 153.095,394.991 170.564,394.991 170.564,361.6 		"/>
	</g>
</g>
<g>
	<g>
		<polygon points="478.609,203.872 478.609,361.6 341.436,361.6 341.436,394.991 358.905,394.991 358.905,512 392.297,512 
			392.297,440.274 460.807,440.274 460.807,512 494.198,512 494.198,394.991 512,394.991 512,203.872 		"/>
	</g>
</g>
<g>
	<g>
		<path d="M272.696,261.565V139.13h237.526l-26.049-28.055c-52.203-56.224-128.55-89.972-211.477-93.977V0h-33.391v17.099
			C156.377,21.103,80.03,54.851,27.827,111.075L1.779,139.13h237.526v122.435H111.209h-26.91v33.391h26.91v44.522h128.096v139.13
			h-41.668V512h116.726v-33.391h-41.667v-139.13h128.096v-44.522h26.91v-33.391h-26.91H272.696z"/>
	</g>
</g>
<g>
</g>
<g>
</g>
<g>
</g>
<g>
</g>
<g>
</g>
<g>
</g>
<g>
</g>
<g>
</g>
<g>
</g>
<g>
</g>
<g>
</g>
<g>
</g>
<g>
</g>
<g>
</g>
<g>
</g>
</svg>
