<svg width="12" height="16" viewBox="0 0 12 16" fill="none" xmlns="http://www.w3.org/2000/svg">
<path fill-rule="evenodd" clip-rule="evenodd" d="M5.21 0.8C5.69 0.295 6 0 6 0C6.109 0.363 6.234 0.708 6.371 1.038C7.183 2.984 8.444 4.388 9.568 5.638C10.878 7.096 12 8.345 12 10C12 11.5913 11.3679 13.1174 10.2426 14.2426C9.11742 15.3679 7.5913 16 6 16C4.4087 16 2.88258 15.3679 1.75736 14.2426C0.632141 13.1174 2.37122e-08 11.5913 0 10C0 6.668 3.58 2.517 5.21 0.8ZM5.623 1.821C4.98081 2.51594 4.37051 3.23968 3.794 3.99C3.068 4.94 2.358 5.998 1.834 7.06C1.304 8.133 1 9.138 1 10C1 11.3261 1.52678 12.5979 2.46447 13.5355C3.40215 14.4732 4.67392 15 6 15C7.32608 15 8.59785 14.4732 9.53553 13.5355C10.4732 12.5979 11 11.3261 11 10C11 8.799 10.204 7.843 8.819 6.3L8.789 6.268C7.75 5.11 6.5 3.72 5.623 1.82V1.821Z" fill="#134611"/>
<path fill-rule="evenodd" clip-rule="evenodd" d="M2.55298 7.776C3.37298 6.135 4.26998 5.023 4.64598 4.646L5.35398 5.354C5.06398 5.644 4.22598 6.665 3.44698 8.224L2.55298 7.776Z" fill="#134611"/>
</svg>
